<?xml version="1.0" encoding="utf-8"?>
<!-- Generator: Adobe Illustrator 25.2.3, SVG Export Plug-In . SVG Version: 6.00 Build 0)  -->
<svg version="1.1" id="Layer_1" xmlns="http://www.w3.org/2000/svg" xmlns:xlink="http://www.w3.org/1999/xlink" x="0px" y="0px"
	 viewBox="0 0 405 320.9" style="enable-background:new 0 0 405 320.9;" xml:space="preserve">
<style type="text/css">
	.st0{fill:url(#SVGID_1_);}
	.st1{fill-rule:evenodd;clip-rule:evenodd;fill:#2E2D2C;}
	.st2{fill:#2E2D2C;}
	.st3{fill-rule:evenodd;clip-rule:evenodd;fill:#EC6B5B;}
	.st4{fill:#EDE0DB;}
</style>
<linearGradient id="SVGID_1_" gradientUnits="userSpaceOnUse" x1="202.5" y1="705.6513" x2="202.5" y2="983.961" gradientTransform="matrix(1 0 0 1 0 -758)">
	<stop  offset="0" style="stop-color:#ED848B"/>
	<stop  offset="3.276520e-02" style="stop-color:#ED93A8"/>
	<stop  offset="1" style="stop-color:#EC6B5B"/>
</linearGradient>
<path class="st0" d="M0.5,320.4h404V0.5H0.5V320.4z"/>
<path class="st1" d="M405,320.9H0V0h405V320.9z M404.1,320V0.9L0.9,0.9V320H404.1z"/>
<path class="st2" d="M405,0h-84.1v41.8H405V0z"/>
<path class="st2" d="M404.5,279.2h-42.8v41.3h42.8V279.2z"/>
<path class="st1" d="M361.2,278.6H405v42.3h-43.8V278.6z M362.1,279.5V320h42v-40.5H362.1z"/>
<path class="st2" d="M155.8,93.7c-27.5,0-45.1,6.4-67.7,17.5v43c15.8-12.9,38.1-21.2,57.7-21.2c17.5,0,31.4,5.2,31.4,16.7
	c0,5.2-2.1,10.3-9.9,17.4h41.6c7.3-8.3,11-17.1,11-27.4C220.1,112.2,193.1,93.7,155.8,93.7z"/>
<path class="st2" d="M312.3,126.1v41h-30.8v-18.5c-12.8,6.1-26.6,10-41.1,10.9v-37c17.7-3.4,36.8-11.4,47.8-25.2v28.8
	C288.2,126.1,312.3,126.1,312.3,126.1z"/>
<path class="st2" d="M201.2,207l-0.9,51.7H60.6v-7.1h17.5v-38.3l0.7-0.5l54.7-36.7c4.8-3.4,8.5-6.5,11.4-9.2h42
	c-7,8.1-17.3,15.7-31.1,23.3L116,215.3l0.5,2.4h50.7C183,217.9,194.9,213.4,201.2,207z"/>
<path class="st2" d="M332.1,217.9v40.9h-85.6V251H218v-33.1h45v-50.8h31.6v50.8H332.1z"/>
<g>
	<path class="st3" d="M221.6,99.3H85.1v-1h136.5V99.3z"/>
	<path class="st3" d="M221.6,110H85.1v-1h136.5V110z"/>
	<path class="st3" d="M221.6,120.2H85.1v-0.5h136.5V120.2z"/>
	<path class="st3" d="M221.6,130.9H85.1v-1h136.5V130.9z"/>
	<path class="st3" d="M221.6,141.6H85.1v-1h136.5V141.6z"/>
	<path class="st3" d="M221.6,151.8H85.1v-1h136.5V151.8z"/>
	<path class="st3" d="M221.6,162.5H85.1v-1h136.5V162.5z"/>
</g>
<path class="st1" d="M35.7,209.9H79v4.8l-17.7,11.6v26.4H35.7V209.9z M36.6,210.8v41h23.8v-26l17.7-11.6v-3.4H36.6z"/>
<path class="st1" d="M288.7,97.7v27.8h22.6V121c0-8.1,0.4-16.8,1.5-23.3H288.7z M288.1,96.9c0.1-0.1,0.2-0.1,0.3-0.1h25.4v0.6l0,0
	c-1.1,6.5-1.6,15.3-1.6,23.6v5.4h-24.4v-29h0.4c-0.4,0-0.4,0-0.4,0l0,0l0,0l0,0l0,0l0,0l0,0c0,0,0,0,0-0.1c0,0,0-0.1,0.1-0.2
	C287.9,97,288,96.9,288.1,96.9z"/>
<path class="st2" d="M357.1,96.3c-1.2,6.7-1.7,16-1.7,24.4v5.1h-25.8V96.4l0.1-0.1H357.1z"/>
<path class="st1" d="M329.5,95.8h28.1l-0.1,0.5c-1.2,6.7-1.7,16-1.7,24.5v5.6h-26.7V96.1L329.5,95.8z M330,96.7v28.8h24.9v-4.7
	c0-8.3,0.5-17.4,1.6-24.1C356.5,96.7,330,96.7,330,96.7z"/>
<path class="st1" d="M218,250.1h29.5v9.2H218V250.1z M218.9,251v7.3h27.8V251H218.9z"/>
<path class="st1" d="M287.8,84.1h41.8v42.3h-41.8V84.1z M288.7,85v40.5h40V85H288.7z"/>
<path class="st1" d="M79,213.4v39.2H60.6v-27L79,213.4z M61.5,226.1v25.7H78v-36.7L61.5,226.1z"/>
<path class="st1" d="M405,167.6H-0.5v-1H405V167.6z"/>
<path class="st4" d="M8.4,65.4c-0.2-2,0-3.9,0.6-5.7s1.5-3.5,2.8-4.9s3-2.6,5-3.6s4.4-1.6,7.2-1.9c1-0.1,2-0.1,3-0.1s2,0.1,3,0.2
	c1,0.1,2,0.3,2.9,0.5c1,0.2,1.9,0.5,2.8,0.9l-2.2,4.7c-0.5-0.2-1.1-0.4-1.8-0.6c-0.7-0.2-1.4-0.3-2.1-0.4c-0.7-0.1-1.5-0.1-2.3-0.2
	c-0.8,0-1.6,0-2.3,0.1c-1.8,0.2-3.4,0.6-4.8,1.2c-1.4,0.6-2.5,1.4-3.4,2.3c-0.9,0.9-1.5,2-1.9,3.2s-0.5,2.5-0.4,3.8
	c0.1,1.4,0.5,2.7,1.2,3.8c0.7,1.1,1.5,2.1,2.6,2.8c1.1,0.8,2.3,1.3,3.8,1.6c1.5,0.3,3,0.4,4.8,0.2c1.4-0.1,2.6-0.4,3.7-0.8
	s2.1-1,2.9-1.6c0.8-0.7,1.4-1.4,1.9-2.3s0.7-1.8,0.8-2.9l-10,1L25.6,62l15.2-1.6l0,0l0,0c0.5,1.4,0.7,2.8,0.7,4.3
	c0,1.4-0.1,2.7-0.5,4s-1,2.5-1.8,3.6s-1.8,2.1-3,3s-2.5,1.6-4.1,2.2c-1.6,0.6-3.3,0.9-5.2,1.1c-2.7,0.3-5.1,0.1-7.3-0.4
	c-2.2-0.6-4.1-1.4-5.7-2.6S11,72.9,10,71.2C9.2,69.3,8.6,67.4,8.4,65.4z"/>
<path class="st4" d="M46.3,47.3l14.5-1.5c2.2-0.2,4.1-0.2,5.8,0.1s3.1,0.8,4.2,1.6c1.2,0.8,2,1.7,2.7,2.9s1.1,2.6,1.2,4.1
	c0.1,1.1,0.1,2.1-0.1,3.1s-0.5,1.9-0.9,2.8c-0.4,0.9-1,1.6-1.8,2.4c-0.7,0.7-1.6,1.3-2.7,1.8l7.2,8.5l-7.1,0.7l-6.2-7.6h-0.2
	l-8.8,0.9l0.8,8.1l-5.8,0.6L46.3,47.3z M62.6,61.2c1.1-0.1,2-0.3,2.8-0.7c0.8-0.3,1.5-0.8,2-1.3s0.9-1.1,1.1-1.8s0.3-1.5,0.2-2.3
	c-0.2-1.6-0.8-2.8-2-3.5c-1.2-0.8-2.9-1-5.1-0.8l-8.9,0.9l1.1,10.4L62.6,61.2z"/>
<path class="st4" d="M90.4,42.7l6.1-0.6l16.8,27.2l-6.1,0.6l-2.8-4.6L87.7,67L86,72l-6.1,0.6L90.4,42.7z M101.6,60.8l-7.5-12.3
	L89.4,62L101.6,60.8z"/>
<path class="st4" d="M114.8,40.2l15.1-1.6c2.2-0.2,4.1-0.2,5.8,0.1s3.1,0.9,4.2,1.7c1.2,0.8,2.1,1.8,2.7,3c0.7,1.2,1.1,2.7,1.2,4.3
	c0.2,1.5,0,3-0.3,4.3c-0.4,1.3-1,2.5-2,3.6c-1,1-2.2,1.9-3.8,2.6c-1.6,0.7-3.4,1.1-5.6,1.4l-9.3,0.9l0.8,7.6l-5.8,0.6L114.8,40.2z
	 M131.6,54.6c1.1-0.1,2-0.3,2.8-0.7s1.5-0.8,2-1.3s0.9-1.2,1.1-1.9c0.2-0.7,0.3-1.5,0.2-2.3c-0.2-1.7-0.9-3-2.1-3.8
	c-1.2-0.8-2.9-1.1-5.1-0.9l-9.4,1l1.1,10.9L131.6,54.6z"/>
<path class="st4" d="M149,36.7l5.8-0.6l0.8,7.5l17.8-1.8l-0.8-7.5l5.8-0.6l3,28.6l-5.8,0.6l-1.7-16.2l-17.8,1.8l1.7,16.2l-5.8,0.6
	L149,36.7z"/>
<path class="st4" d="M185.8,32.9l5.8-0.6l3,28.6l-5.8,0.6L185.8,32.9z"/>
<path class="st4" d="M198.8,45.8c-0.2-2,0-4,0.6-5.8s1.5-3.5,2.9-4.9c1.3-1.5,3-2.7,5-3.6c2-1,4.4-1.6,7-1.9
	c2.3-0.2,4.5-0.2,6.5,0.1c2,0.3,3.9,0.8,5.7,1.6l-2.2,4.7c-0.5-0.3-1.1-0.5-1.8-0.7s-1.4-0.3-2.2-0.4c-0.8-0.1-1.5-0.2-2.3-0.2
	s-1.6,0-2.3,0.1c-1.9,0.2-3.5,0.6-4.9,1.2c-1.4,0.6-2.6,1.4-3.5,2.3c-0.9,0.9-1.6,2-2,3.2s-0.5,2.5-0.4,3.8c0.1,1.4,0.5,2.7,1.2,3.8
	s1.5,2.1,2.6,2.8s2.4,1.3,3.9,1.6s3.2,0.4,5.1,0.2c0.8-0.1,1.7-0.2,2.5-0.4s1.6-0.5,2.3-0.7c0.8-0.3,1.5-0.6,2.2-1s1.3-0.8,1.9-1.2
	l3.1,4.1c-1.5,1.2-3.2,2.1-5.2,2.9c-2,0.8-4.1,1.3-6.4,1.5c-2.9,0.3-5.6,0.2-7.9-0.3c-2.3-0.5-4.3-1.4-5.9-2.6
	c-1.6-1.2-2.9-2.6-3.9-4.4C199.6,49.8,199,47.9,198.8,45.8z"/>
<path class="st4" d="M13.7,90.2l12.5-1.3c3.6-0.4,6.8-0.3,9.6,0.2c2.8,0.5,5.1,1.4,7,2.7c1.9,1.3,3.4,2.9,4.5,4.9s1.8,4.3,2,6.9
	c0.3,2.5,0.1,4.8-0.6,7c-0.6,2.2-1.8,4.1-3.4,5.8c-1.6,1.7-3.7,3.1-6.3,4.3c-2.6,1.1-5.7,1.9-9.4,2.3l-12.5,1.3L13.7,90.2z
	 M30.8,116.8c2.1-0.2,3.8-0.7,5.3-1.3c1.5-0.7,2.7-1.6,3.6-2.7c0.9-1.1,1.6-2.3,2-3.8c0.4-1.4,0.5-3,0.3-4.7s-0.6-3.1-1.2-4.4
	c-0.7-1.3-1.6-2.4-2.7-3.2C37,95.9,35.6,95.3,34,95s-3.4-0.4-5.5-0.2l-7.3,0.8l2.3,22.1L30.8,116.8z"/>
<path class="st4" d="M54.5,86l29-3l0.6,6.1L62,91.3l0.7,6.8l19.5-2l0.6,5.7l-19.5,2l1,9.5l22.5-2.3l0.6,6L58,120L54.5,86z"/>
<path class="st4" d="M95.7,105.9c1.3,0.6,2.6,1.1,3.9,1.5s2.7,0.8,4.1,1s2.9,0.4,4.4,0.4s3.1,0,4.8-0.2c2-0.2,3.8-0.5,5.2-0.9
	c1.4-0.4,2.5-0.9,3.4-1.5s1.5-1.2,1.8-1.9c0.4-0.7,0.5-1.4,0.4-2.2c-0.1-1.2-0.7-2.2-1.8-2.8c-1.1-0.6-2.7-0.8-4.9-0.6
	c-0.9,0.1-1.9,0.3-3,0.5c-1,0.2-2.1,0.5-3.1,0.7c-1,0.3-2.1,0.5-3.1,0.7s-2,0.4-2.9,0.5c-1.5,0.2-3,0.1-4.5-0.1
	c-1.4-0.2-2.7-0.7-3.9-1.4c-1.2-0.7-2.1-1.6-2.9-2.7s-1.2-2.4-1.4-4c-0.1-0.9-0.1-1.9,0.1-2.8s0.5-1.9,0.9-2.7
	c0.5-0.9,1.1-1.8,1.9-2.6c0.8-0.8,1.8-1.6,3-2.2c1.2-0.7,2.6-1.2,4.2-1.7s3.5-0.8,5.6-1c1.5-0.2,3.1-0.2,4.6-0.2
	c1.6,0,3.1,0.1,4.6,0.2c1.5,0.2,2.9,0.4,4.3,0.7c1.4,0.3,2.7,0.6,3.9,1l-2.4,5.9c-1-0.3-2.1-0.6-3.2-0.8c-1.1-0.2-2.3-0.4-3.6-0.6
	c-1.2-0.1-2.5-0.2-3.8-0.2s-2.6,0-3.9,0.2c-1.9,0.2-3.5,0.5-4.7,0.9s-2.1,0.9-2.8,1.4c-0.7,0.5-1.1,1-1.4,1.6
	c-0.2,0.6-0.3,1.1-0.3,1.6c0.1,1,0.6,1.8,1.6,2.4c1,0.5,2.4,0.7,4.3,0.5c0.8-0.1,1.6-0.2,2.6-0.4c1-0.2,2-0.4,3.1-0.7
	c1.1-0.2,2.2-0.5,3.3-0.7c1.1-0.2,2.2-0.4,3.3-0.5c2-0.2,3.8-0.2,5.4,0.1c1.6,0.3,3,0.8,4.1,1.5s2,1.6,2.7,2.8
	c0.7,1.1,1.1,2.4,1.2,3.9c0.2,2-0.1,3.8-0.8,5.4s-1.9,3-3.5,4.3c-1.6,1.2-3.5,2.2-5.8,3s-4.9,1.3-7.8,1.6c-1.9,0.2-3.8,0.3-5.7,0.2
	c-1.9,0-3.6-0.2-5.4-0.5c-1.7-0.3-3.4-0.6-5-1.1s-3-1-4.4-1.6L95.7,105.9z"/>
<path class="st4" d="M135.3,77.6l6.9-0.7l3.5,34l-6.9,0.7L135.3,77.6z"/>
<path class="st4" d="M150.5,92.9c-0.2-2.4,0-4.7,0.7-6.8c0.7-2.2,1.8-4.1,3.4-5.9c1.6-1.7,3.6-3.1,6-4.3c2.4-1.1,5.3-1.9,8.5-2.2
	c1.2-0.1,2.4-0.2,3.5-0.2c1.2,0,2.4,0.1,3.6,0.2c1.2,0.1,2.3,0.4,3.5,0.7c1.1,0.3,2.2,0.6,3.3,1.1l-2.6,5.6
	c-0.6-0.3-1.3-0.5-2.1-0.7s-1.6-0.4-2.5-0.5s-1.8-0.2-2.7-0.2s-1.9,0-2.8,0.1c-2.1,0.2-4,0.7-5.7,1.4c-1.6,0.7-3,1.6-4,2.7
	c-1.1,1.1-1.8,2.4-2.3,3.8s-0.6,3-0.5,4.6c0.2,1.7,0.7,3.2,1.4,4.5c0.8,1.3,1.8,2.5,3.1,3.4s2.8,1.5,4.5,2c1.7,0.4,3.6,0.5,5.7,0.3
	c1.6-0.2,3.1-0.5,4.5-1c1.3-0.5,2.5-1.2,3.4-2s1.7-1.7,2.2-2.7s0.8-2.2,0.9-3.4l-11.9,1.2l-0.6-5.7l18-1.9l0,0l0,0
	c0.5,1.7,0.8,3.4,0.9,5.1c0,1.7-0.2,3.2-0.7,4.8c-0.5,1.5-1.2,2.9-2.1,4.3c-0.9,1.3-2.1,2.5-3.5,3.6c-1.4,1-3,1.9-4.9,2.6
	s-3.9,1.1-6.2,1.4c-3.2,0.3-6,0.2-8.7-0.5c-2.6-0.7-4.8-1.7-6.8-3.2c-1.9-1.4-3.4-3.2-4.6-5.2C151.4,97.7,150.7,95.4,150.5,92.9z"/>
<path class="st4" d="M195.6,71.4l6.9-0.7l22.4,8.9l-1.1-11.1l6.9-0.7l3.5,34l-6.9,0.7l-1.6-15.6l-22.3-8.8l2.8,26.6l-6.9,0.7
	L195.6,71.4z"/>
<path class="st4" d="M62.3,290c0.6,0.3,1.1,0.6,1.7,0.9c0.6,0.3,1.2,0.5,1.8,0.7c0.6,0.2,1.3,0.3,2,0.4s1.4,0.1,2.2,0.1
	c0.9,0,1.8-0.1,2.4-0.2c0.7-0.1,1.2-0.3,1.6-0.5s0.7-0.5,0.9-0.8c0.2-0.3,0.3-0.6,0.3-1c0-0.6-0.2-1-0.7-1.4
	c-0.5-0.3-1.2-0.5-2.2-0.5c-0.4,0-0.9,0-1.4,0.1s-1,0.1-1.5,0.2s-1,0.1-1.5,0.2s-0.9,0.1-1.4,0.1c-0.7,0-1.4-0.1-2-0.3
	c-0.6-0.2-1.2-0.5-1.7-0.8c-0.5-0.4-0.9-0.8-1.2-1.4c-0.3-0.5-0.4-1.2-0.4-1.9c0-0.4,0.1-0.9,0.2-1.3c0.1-0.4,0.3-0.8,0.6-1.2
	c0.3-0.4,0.6-0.8,1-1.1c0.4-0.3,0.9-0.6,1.5-0.9c0.6-0.2,1.3-0.4,2-0.6c0.8-0.1,1.6-0.2,2.6-0.2c0.7,0,1.4,0,2.1,0.1
	s1.4,0.2,2.1,0.3c0.7,0.1,1.3,0.3,2,0.5c0.6,0.2,1.2,0.4,1.7,0.7l-1.4,2.6c-0.4-0.2-0.9-0.4-1.4-0.5c-0.5-0.2-1-0.3-1.6-0.4
	s-1.1-0.2-1.7-0.3c-0.6-0.1-1.2-0.1-1.8-0.1c-0.9,0-1.6,0.1-2.2,0.2s-1,0.3-1.4,0.5c-0.3,0.2-0.6,0.4-0.7,0.7
	c-0.1,0.2-0.2,0.5-0.2,0.7c0,0.5,0.2,0.9,0.6,1.2c0.4,0.3,1.1,0.4,1.9,0.4c0.3,0,0.7,0,1.2-0.1s0.9-0.1,1.4-0.2s1-0.1,1.5-0.2
	s1-0.1,1.5-0.1c0.9,0,1.7,0.1,2.5,0.3c0.7,0.2,1.3,0.5,1.8,0.9s0.9,0.9,1.1,1.4s0.4,1.2,0.4,1.8c0,0.9-0.2,1.7-0.6,2.4
	c-0.4,0.7-1,1.3-1.8,1.8s-1.7,0.9-2.8,1.1c-1.1,0.2-2.3,0.4-3.7,0.4c-0.9,0-1.8-0.1-2.6-0.2c-0.8-0.1-1.7-0.3-2.4-0.5
	c-0.8-0.2-1.5-0.5-2.2-0.7c-0.7-0.3-1.3-0.6-1.9-1L62.3,290z"/>
<path class="st4" d="M82.2,278.9h13.4v2.8H85.4v3.2h9.1v2.6h-9.1v4.4h10.4v2.8H82.2V278.9z"/>
<path class="st4" d="M99.4,278.9h3.2l9.8,5.2v-5.2h3.2v15.9h-3.2v-7.3l-9.8-5.1v12.4h-3.2V278.9z"/>
<path class="st4" d="M119.7,278.9h3.2v15.9h-3.2V278.9z"/>
<path class="st4" d="M126,286.7c0-1.2,0.2-2.3,0.7-3.3c0.4-1,1-1.8,1.8-2.6c0.8-0.7,1.7-1.3,2.8-1.7c1.1-0.4,2.3-0.6,3.7-0.6
	c1.3,0,2.6,0.2,3.7,0.6c1.1,0.4,2.1,0.9,2.8,1.7c0.8,0.7,1.4,1.6,1.8,2.6c0.4,1,0.7,2.1,0.7,3.3c0,1.2-0.2,2.3-0.7,3.3
	c-0.4,1-1.1,1.9-1.8,2.6c-0.8,0.7-1.7,1.3-2.8,1.7c-1.1,0.4-2.3,0.6-3.7,0.6c-1.3,0-2.6-0.2-3.7-0.6c-1.1-0.4-2.1-1-2.8-1.7
	c-0.8-0.7-1.4-1.6-1.8-2.6C126.3,289.1,126,288,126,286.7z M129.2,286.7c0,0.8,0.1,1.6,0.4,2.2c0.3,0.7,0.7,1.2,1.2,1.7
	s1.1,0.8,1.8,1.1c0.7,0.2,1.5,0.4,2.3,0.4s1.6-0.1,2.3-0.4s1.3-0.6,1.8-1.1s0.9-1,1.2-1.7s0.4-1.4,0.4-2.2s-0.1-1.6-0.4-2.2
	c-0.3-0.7-0.7-1.2-1.2-1.6c-0.5-0.5-1.1-0.8-1.8-1s-1.5-0.4-2.3-0.4s-1.6,0.1-2.3,0.4c-0.7,0.2-1.3,0.6-1.8,1s-0.9,1-1.2,1.6
	C129.4,285.2,129.2,285.9,129.2,286.7z"/>
<path class="st4" d="M147.6,278.9h8c1.2,0,2.3,0.1,3.1,0.4c0.9,0.3,1.6,0.6,2.2,1.1c0.6,0.5,1,1.1,1.3,1.8c0.3,0.7,0.4,1.5,0.4,2.3
	c0,0.6-0.1,1.2-0.2,1.7c-0.1,0.5-0.4,1-0.7,1.5c-0.3,0.4-0.7,0.8-1.1,1.2c-0.4,0.3-1,0.6-1.6,0.9l3.4,5.1h-3.9l-3-4.5h-0.1h-4.8v4.5
	h-3.2v-16H147.6z M155.7,287.4c0.6,0,1.1-0.1,1.6-0.2s0.8-0.3,1.1-0.6c0.3-0.3,0.5-0.6,0.7-0.9c0.2-0.4,0.2-0.8,0.2-1.2
	c0-0.9-0.3-1.6-0.9-2c-0.6-0.5-1.5-0.7-2.7-0.7h-4.9v5.8h4.9V287.4z"/>
<path class="st4" d="M174.1,290c0.6,0.3,1.1,0.6,1.7,0.9c0.6,0.3,1.2,0.5,1.8,0.7s1.3,0.3,2,0.4s1.4,0.1,2.2,0.1
	c0.9,0,1.8-0.1,2.4-0.2c0.7-0.1,1.2-0.3,1.6-0.5c0.4-0.2,0.7-0.5,0.9-0.8s0.3-0.6,0.3-1c0-0.6-0.2-1-0.7-1.4
	c-0.5-0.3-1.2-0.5-2.2-0.5c-0.4,0-0.9,0-1.4,0.1s-1,0.1-1.5,0.2s-1,0.1-1.5,0.2s-0.9,0.1-1.4,0.1c-0.7,0-1.4-0.1-2-0.3
	c-0.6-0.2-1.2-0.5-1.7-0.8c-0.5-0.4-0.9-0.8-1.2-1.4c-0.3-0.5-0.4-1.2-0.4-1.9c0-0.4,0.1-0.9,0.2-1.3c0.1-0.4,0.3-0.8,0.6-1.2
	c0.3-0.4,0.6-0.8,1-1.1c0.4-0.3,0.9-0.6,1.5-0.9c0.6-0.2,1.3-0.4,2-0.6c0.8-0.1,1.6-0.2,2.6-0.2c0.7,0,1.4,0,2.1,0.1
	c0.7,0.1,1.4,0.2,2.1,0.3c0.7,0.1,1.3,0.3,2,0.5c0.6,0.2,1.2,0.4,1.7,0.7l-1.4,2.6c-0.4-0.2-0.9-0.4-1.4-0.5c-0.5-0.2-1-0.3-1.6-0.4
	s-1.1-0.2-1.7-0.3c-0.6-0.1-1.2-0.1-1.8-0.1c-0.9,0-1.6,0.1-2.2,0.2c-0.6,0.1-1,0.3-1.4,0.5c-0.3,0.2-0.6,0.4-0.7,0.7
	c-0.1,0.2-0.2,0.5-0.2,0.7c0,0.5,0.2,0.9,0.6,1.2c0.4,0.3,1.1,0.4,1.9,0.4c0.3,0,0.8,0,1.2-0.1c0.5-0.1,0.9-0.1,1.4-0.2
	s1-0.1,1.5-0.2s1-0.1,1.5-0.1c0.9,0,1.7,0.1,2.5,0.3c0.7,0.2,1.3,0.5,1.8,0.9s0.9,0.9,1.1,1.4c0.2,0.5,0.4,1.2,0.4,1.8
	c0,0.9-0.2,1.7-0.6,2.4c-0.4,0.7-1,1.3-1.8,1.8s-1.7,0.9-2.8,1.1s-2.3,0.4-3.7,0.4c-0.9,0-1.8-0.1-2.6-0.2s-1.7-0.3-2.4-0.5
	c-0.8-0.2-1.5-0.5-2.2-0.7c-0.7-0.3-1.3-0.6-1.9-1L174.1,290z"/>
<path class="st4" d="M194,278.9h3.2v4.1h9.8v-4.1h3.2v15.9H207v-9h-9.8v9H194V278.9z"/>
<path class="st4" d="M213.8,286.7c0-1.2,0.2-2.3,0.7-3.3c0.4-1,1-1.8,1.8-2.6c0.8-0.7,1.7-1.3,2.8-1.7c1.1-0.4,2.3-0.6,3.7-0.6
	c1.3,0,2.6,0.2,3.7,0.6c1.1,0.4,2.1,0.9,2.8,1.7c0.8,0.7,1.4,1.6,1.8,2.6c0.4,1,0.7,2.1,0.7,3.3c0,1.2-0.2,2.3-0.7,3.3
	c-0.4,1-1.1,1.9-1.8,2.6c-0.8,0.7-1.7,1.3-2.8,1.7c-1.1,0.4-2.3,0.6-3.7,0.6c-1.3,0-2.6-0.2-3.7-0.6c-1.1-0.4-2.1-1-2.8-1.7
	c-0.8-0.7-1.4-1.6-1.8-2.6C214,289.1,213.8,288,213.8,286.7z M217,286.7c0,0.8,0.1,1.6,0.4,2.2c0.3,0.7,0.7,1.2,1.2,1.7
	s1.1,0.8,1.8,1.1c0.7,0.2,1.5,0.4,2.3,0.4s1.6-0.1,2.3-0.4s1.3-0.6,1.8-1.1s0.9-1,1.2-1.7s0.4-1.4,0.4-2.2s-0.1-1.6-0.4-2.2
	c-0.3-0.7-0.7-1.2-1.2-1.6c-0.5-0.5-1.1-0.8-1.8-1s-1.5-0.4-2.3-0.4s-1.6,0.1-2.3,0.4c-0.7,0.2-1.3,0.6-1.8,1s-0.9,1-1.2,1.6
	C217.1,285.2,217,285.9,217,286.7z"/>
<path class="st4" d="M233.3,278.9h3.5l4.3,10.2l1,2.5l0.8-2.5l1.6-3.7l-2.8-6.5h3.3l1.2,3.1l1.1-3.1h3.3l-2.8,6.5l1.6,3.8l1,2.4
	l0.7-2.4l4.3-10.3h3.5l-7,15.9h-3.2l-1.4-3.1l-1.1-3.1l-1.1,3.1l-1.4,3.1h-3.2L233.3,278.9z"/>
<path class="st4" d="M260.1,286.7c0-1.1,0.2-2.2,0.6-3.2s1-1.8,1.8-2.5s1.8-1.3,2.9-1.7c1.2-0.4,2.5-0.6,3.9-0.6
	c1.3,0,2.5,0.1,3.5,0.4c1.1,0.3,2.1,0.7,3,1.2l-1.5,2.4c-0.3-0.2-0.6-0.3-1-0.5c-0.4-0.1-0.7-0.3-1.1-0.4s-0.8-0.2-1.3-0.2
	c-0.4-0.1-0.9-0.1-1.3-0.1c-1,0-1.9,0.1-2.7,0.4c-0.8,0.2-1.5,0.6-2,1.1s-1,1-1.2,1.6c-0.3,0.6-0.4,1.3-0.4,2.1
	c0,0.8,0.1,1.5,0.4,2.2s0.7,1.2,1.3,1.7c0.6,0.5,1.3,0.8,2.1,1.1c0.8,0.3,1.7,0.4,2.8,0.4c0.5,0,0.9,0,1.4-0.1s0.9-0.2,1.3-0.3
	c0.4-0.1,0.8-0.3,1.2-0.4c0.4-0.2,0.8-0.4,1.1-0.5l1.5,2.4c-0.9,0.6-1.9,1-3,1.3s-2.3,0.5-3.6,0.5c-1.6,0-3-0.2-4.3-0.6
	c-1.2-0.4-2.2-1-3.1-1.7c-0.8-0.7-1.4-1.6-1.9-2.6C260.3,288.9,260.1,287.9,260.1,286.7z"/>
<path class="st4" d="M285.4,278.9h3.4l7.6,15.9H293l-1.3-2.7h-9.2l-1.2,2.7H278L285.4,278.9z M290.5,289.4l-3.4-7.2l-3.3,7.2H290.5z
	"/>
<path class="st4" d="M299.6,290c0.6,0.3,1.1,0.6,1.7,0.9s1.2,0.5,1.8,0.7c0.6,0.2,1.3,0.3,2,0.4s1.4,0.1,2.2,0.1
	c0.9,0,1.8-0.1,2.4-0.2c0.7-0.1,1.2-0.3,1.6-0.5s0.7-0.5,0.9-0.8c0.2-0.3,0.3-0.6,0.3-1c0-0.6-0.2-1-0.7-1.4
	c-0.5-0.3-1.2-0.5-2.2-0.5c-0.4,0-0.9,0-1.4,0.1s-1,0.1-1.5,0.2s-1,0.1-1.5,0.2s-0.9,0.1-1.4,0.1c-0.7,0-1.4-0.1-2-0.3
	c-0.6-0.2-1.2-0.5-1.7-0.8c-0.5-0.4-0.9-0.8-1.2-1.4c-0.3-0.5-0.4-1.2-0.4-1.9c0-0.4,0.1-0.9,0.2-1.3s0.3-0.8,0.6-1.2
	c0.3-0.4,0.6-0.8,1-1.1c0.4-0.3,0.9-0.6,1.5-0.9c0.6-0.2,1.3-0.4,2-0.6c0.8-0.1,1.6-0.2,2.6-0.2c0.7,0,1.4,0,2.1,0.1
	s1.4,0.2,2.1,0.3c0.7,0.1,1.3,0.3,2,0.5c0.6,0.2,1.2,0.4,1.7,0.7l-1.4,2.6c-0.4-0.2-0.9-0.4-1.4-0.5c-0.5-0.2-1-0.3-1.6-0.4
	s-1.1-0.2-1.7-0.3c-0.6-0.1-1.2-0.1-1.8-0.1c-0.9,0-1.6,0.1-2.2,0.2s-1,0.3-1.4,0.5c-0.3,0.2-0.6,0.4-0.7,0.7
	c-0.1,0.2-0.2,0.5-0.2,0.7c0,0.5,0.2,0.9,0.6,1.2c0.4,0.3,1.1,0.4,1.9,0.4c0.4,0,0.8,0,1.2-0.1c0.5-0.1,0.9-0.1,1.4-0.2
	s1-0.1,1.5-0.2s1-0.1,1.5-0.1c0.9,0,1.7,0.1,2.5,0.3c0.7,0.2,1.3,0.5,1.8,0.9s0.9,0.9,1.1,1.4s0.4,1.2,0.4,1.8
	c0,0.9-0.2,1.7-0.6,2.4c-0.4,0.7-1,1.3-1.8,1.8s-1.7,0.9-2.8,1.1c-1.1,0.2-2.3,0.4-3.7,0.4c-0.9,0-1.8-0.1-2.6-0.2
	c-0.8-0.1-1.7-0.3-2.4-0.5c-0.8-0.2-1.5-0.5-2.2-0.7c-0.7-0.3-1.3-0.6-1.9-1L299.6,290z"/>
<path class="st4" d="M319.5,278.9h13.4v2.8h-10.2v3.2h9.1v2.6h-9.1v4.4h10.4v2.8h-13.6L319.5,278.9L319.5,278.9z"/>
</svg>
